<?xml version="1.0" encoding="utf-8"?>
<!-- Generator: Adobe Illustrator 18.0.0, SVG Export Plug-In . SVG Version: 6.00 Build 0)  -->
<!DOCTYPE svg PUBLIC "-//W3C//DTD SVG 1.1//EN" "http://www.w3.org/Graphics/SVG/1.1/DTD/svg11.dtd">
<svg version="1.1" xmlns="http://www.w3.org/2000/svg" xmlns:xlink="http://www.w3.org/1999/xlink" x="0px" y="0px"
	 viewBox="0 0 450 450" enable-background="new 0 0 450 450" xml:space="preserve">
<g id="Layer_3">
</g>
<g id="Layer_1" opacity="0.33">
	<line fill="none" stroke="#0A72B3" stroke-width="3" stroke-miterlimit="10" x1="136.3" y1="17.2" x2="377" y2="339.2"/>
	<line fill="none" stroke="#0A72B3" stroke-width="3" stroke-miterlimit="10" x1="179.7" y1="21.2" x2="343" y2="361.2"/>
	<line fill="none" stroke="#0A72B3" stroke-width="3" stroke-miterlimit="10" x1="219.7" y1="38.5" x2="306.3" y2="373.8"/>
	<line fill="none" stroke="#0A72B3" stroke-width="3" stroke-miterlimit="10" x1="253.7" y1="58.5" x2="271.7" y2="379.8"/>
	<line fill="none" stroke="#0A72B3" stroke-width="3" stroke-miterlimit="10" x1="279" y1="82.5" x2="237" y2="377.2"/>
	<line fill="none" stroke="#0A72B3" stroke-width="3" stroke-miterlimit="10" x1="298.3" y1="112.5" x2="208.3" y2="364.5"/>
	<line fill="none" stroke="#0A72B3" stroke-width="3" stroke-miterlimit="10" x1="308.3" y1="142.5" x2="185.7" y2="349.8"/>
	<line fill="none" stroke="#0A72B3" stroke-width="3" stroke-miterlimit="10" x1="311" y1="173.8" x2="167.7" y2="332.5"/>
	<line fill="none" stroke="#0A72B3" stroke-width="3" stroke-miterlimit="10" x1="307" y1="199.8" x2="158.3" y2="309.2"/>
	<line fill="none" stroke="#0A72B3" stroke-width="3" stroke-miterlimit="10" x1="297.7" y1="223.2" x2="152.3" y2="289.8"/>
	<line fill="none" stroke="#0A72B3" stroke-width="3" stroke-miterlimit="10" x1="283.7" y1="241.2" x2="151.7" y2="271.2"/>
	<line fill="none" stroke="#0A72B3" stroke-width="3" stroke-miterlimit="10" x1="436.3" y1="269.8" x2="23" y2="349.2"/>
	<line fill="none" stroke="#0A72B3" stroke-width="3" stroke-miterlimit="10" x1="411" y1="311.2" x2="18.3" y2="307.8"/>
	<line fill="none" stroke="#0A72B3" stroke-width="3" stroke-miterlimit="10" x1="378.3" y1="340.5" x2="23" y2="267.8"/>
	<line fill="none" stroke="#0A72B3" stroke-width="3" stroke-miterlimit="10" x1="343" y1="364.5" x2="33.7" y2="231.8"/>
	<line fill="none" stroke="#0A72B3" stroke-width="3" stroke-miterlimit="10" x1="305.7" y1="377.2" x2="54.3" y2="203.2"/>
	<line fill="none" stroke="#0A72B3" stroke-width="3" stroke-miterlimit="10" x1="271.7" y1="382.5" x2="77" y2="182.5"/>
	<line fill="none" stroke="#0A72B3" stroke-width="3" stroke-miterlimit="10" x1="237" y1="379.2" x2="101.7" y2="169.2"/>
	<line fill="none" stroke="#0A72B3" stroke-width="3" stroke-miterlimit="10" x1="207.7" y1="368.5" x2="126.3" y2="159.2"/>
	<line fill="none" stroke="#0A72B3" stroke-width="3" stroke-miterlimit="10" x1="183.7" y1="352.5" x2="149.7" y2="157.2"/>
	<line fill="none" stroke="#0A72B3" stroke-width="3" stroke-miterlimit="10" x1="166.3" y1="331.8" x2="171" y2="165.2"/>
	<line fill="none" stroke="#0A72B3" stroke-width="3" stroke-miterlimit="10" x1="155.7" y1="313.2" x2="189" y2="169.8"/>
	<line fill="none" stroke="#0A72B3" stroke-width="3" stroke-miterlimit="10" x1="151.7" y1="291.2" x2="202.3" y2="185.2"/>
	<line fill="none" stroke="#0A72B3" stroke-width="3" stroke-miterlimit="10" x1="62.3" y1="432.5" x2="176.3" y2="19.8"/>
	<line fill="none" stroke="#0A72B3" stroke-width="3" stroke-miterlimit="10" x1="37.7" y1="391.2" x2="216.3" y2="35.2"/>
	<line fill="none" stroke="#0A72B3" stroke-width="3" stroke-miterlimit="10" x1="21" y1="349.2" x2="253" y2="54.5"/>
	<line fill="none" stroke="#0A72B3" stroke-width="3" stroke-miterlimit="10" x1="19" y1="306.5" x2="279" y2="81.2"/>
	<line fill="none" stroke="#0A72B3" stroke-width="3" stroke-miterlimit="10" x1="19.7" y1="266.5" x2="301.7" y2="108.5"/>
	<line fill="none" stroke="#0A72B3" stroke-width="3" stroke-miterlimit="10" x1="32.3" y1="231.8" x2="309.7" y2="140.5"/>
	<line fill="none" stroke="#0A72B3" stroke-width="3" stroke-miterlimit="10" x1="49" y1="201.8" x2="315" y2="170.5"/>
	<line fill="none" stroke="#0A72B3" stroke-width="3" stroke-miterlimit="10" x1="73.7" y1="179.8" x2="306.3" y2="197.8"/>
	<line fill="none" stroke="#0A72B3" stroke-width="3" stroke-miterlimit="10" x1="99.7" y1="165.2" x2="300.3" y2="222.5"/>
	<line fill="none" stroke="#0A72B3" stroke-width="3" stroke-miterlimit="10" x1="125" y1="156.5" x2="287.7" y2="241.8"/>
	<line fill="none" stroke="#0A72B3" stroke-width="3" stroke-miterlimit="10" x1="146.3" y1="156.5" x2="269" y2="253.2"/>
	<line fill="none" stroke="#0A72B3" stroke-width="3" stroke-miterlimit="10" x1="171" y1="162.5" x2="249.7" y2="258.5"/>
	<path fill="none" stroke="#0A72B3" stroke-width="3" stroke-miterlimit="10" d="M132.3,13.2c0,0,110.7-3.3,164,93.3
		c0,0,53.3,96.7-33.3,146.7c0,0-8,5.3-12,1.3s-0.7-2.3-0.7-2.3"/>
	<path fill="none" stroke="#0A72B3" stroke-width="3" stroke-miterlimit="10" d="M199,181.2c0,0-83.3-80-163.3,46
		c0,0-52.7,97.3,24,202"/>
	<path fill="none" stroke="#0A72B3" stroke-width="3" stroke-miterlimit="10" d="M153,273.8c0,0-9.3,106,122.7,106.7
		c0,0,106,0,157.3-108"/>
</g>
<g id="Layer_2">
	<circle fill="#93D2F4" cx="272" cy="382.8" r="7.7"/>
	<circle fill="#93D2F4" cx="314" cy="171.5" r="7.7"/>
	<circle fill="#93D2F4" cx="311.7" cy="140.5" r="7.7"/>
	<circle fill="#93D2F4" cx="299.7" cy="109.8" r="7.7"/>
	<circle fill="#93D2F4" cx="280.3" cy="79.2" r="7.7"/>
	<circle fill="#93D2F4" cx="253.7" cy="53.2" r="7.7"/>
	<circle fill="#93D2F4" cx="218.7" cy="32.2" r="7.7"/>
	<circle fill="#93D2F4" cx="178" cy="16.8" r="7.7"/>
	<circle fill="#93D2F4" cx="132.3" cy="13.2" r="7.7"/>
	<circle fill="#93D2F4" cx="436.3" cy="271.2" r="7.7"/>
	<circle fill="#93D2F4" cx="238.3" cy="378.5" r="7.7"/>
	<circle fill="#93D2F4" cx="209.3" cy="368.5" r="7.7"/>
	<circle fill="#93D2F4" cx="184.3" cy="351.8" r="7.7"/>
	<circle fill="#93D2F4" cx="167" cy="332.5" r="7.7"/>
	<circle fill="#93D2F4" cx="156.3" cy="311.2" r="7.7"/>
	<circle fill="#93D2F4" cx="152.7" cy="290.5" r="7.7"/>
	<circle fill="#93D2F4" cx="154.3" cy="270.5" r="7.7"/>
	<circle fill="#93D2F4" cx="250.3" cy="259.8" r="7.7"/>
	<circle fill="#93D2F4" cx="268.7" cy="252.5" r="7.7"/>
	<circle fill="#93D2F4" cx="285.3" cy="240.5" r="7.7"/>
	<circle fill="#93D2F4" cx="411.3" cy="310.5" r="7.7"/>
	<circle fill="#93D2F4" cx="379.3" cy="342.5" r="7.7"/>
	<circle fill="#93D2F4" cx="344" cy="364.5" r="7.7"/>
	<circle fill="#93D2F4" cx="308" cy="377.8" r="7.7"/>
	<circle fill="#93D2F4" cx="309" cy="198.5" r="7.7"/>
	<circle fill="#93D2F4" cx="21.7" cy="267.8" r="7.7"/>
	<circle fill="#93D2F4" cx="33.7" cy="231.8" r="7.7"/>
	<circle fill="#93D2F4" cx="51" cy="201.8" r="7.7"/>
	<circle fill="#93D2F4" cx="73.7" cy="179.2" r="7.7"/>
	<circle fill="#93D2F4" cx="99" cy="164.5" r="7.7"/>
	<circle fill="#93D2F4" cx="125" cy="156.5" r="7.7"/>
	<circle fill="#93D2F4" cx="149" cy="155.8" r="7.7"/>
	<circle fill="#93D2F4" cx="171.7" cy="161.2" r="7.7"/>
	<circle fill="#93D2F4" cx="189" cy="170.5" r="7.7"/>
	<circle fill="#93D2F4" cx="299.7" cy="222.5" r="7.7"/>
	<circle fill="#93D2F4" cx="62.3" cy="433.2" r="7.7"/>
	<circle fill="#93D2F4" cx="37" cy="391.2" r="7.7"/>
	<circle fill="#93D2F4" cx="22.3" cy="349.2" r="7.7"/>
	<circle fill="#93D2F4" cx="202.3" cy="185.8" r="7.7"/>
	<circle fill="#93D2F4" cx="17.7" cy="307.2" r="7.7"/>
</g>
</svg>
