<?xml version="1.0" encoding="utf-8"?>
<!-- Generator: Adobe Illustrator 18.0.0, SVG Export Plug-In . SVG Version: 6.00 Build 0)  -->
<!DOCTYPE svg PUBLIC "-//W3C//DTD SVG 1.1//EN" "http://www.w3.org/Graphics/SVG/1.1/DTD/svg11.dtd">
<svg version="1.1" xmlns="http://www.w3.org/2000/svg" xmlns:xlink="http://www.w3.org/1999/xlink" x="0px" y="0px"
	 viewBox="0 0 300 300" enable-background="new 0 0 300 300" xml:space="preserve">
<g id="Layer_1" display="none">
	<polygon display="inline" fill="#939292" points="87.7,198.7 87.7,133.3 31.1,100.9 31.1,166.1 	"/>
	<polygon display="inline" fill="#4F4F4F" points="31.1,100.9 87.7,67.8 144.3,100.9 87.7,133.8 	"/>
	<polygon display="inline" fill="#939292" points="201,198.7 201,133.3 257.6,100.9 257.6,166.1 	"/>
	<polygon display="inline" fill="#4F4F4F" points="257.6,100.9 201,67.8 144.3,100.9 201,133.8 	"/>
	<polygon display="inline" fill="#4F4F4F" points="200.3,198.6 143.7,231.5 144.2,296.7 200.5,264 	"/>
	<polygon display="inline" fill="#939292" points="144.2,296.7 87.1,264.4 87.3,198.8 144.1,231.2 	"/>
	<polygon display="inline" fill="#939292" points="268.7,159.6 268.7,94.1 325.4,61.8 325.4,127 	"/>
	<polygon display="inline" fill="#4F4F4F" points="325.4,61.8 268.7,28.7 212.1,61.8 268.7,94.7 	"/>
	<polygon display="inline" fill="#939292" points="19.5,160.1 19.5,94.6 -37.1,62.3 -37.1,127.5 	"/>
	<polygon display="inline" fill="#4F4F4F" points="-37.1,62.3 19.5,29.1 76.1,62.3 19.5,95.2 	"/>
	<polygon display="inline" fill="#939292" points="86.9,278.5 143.7,311.1 143.5,376.3 87,343.8 	"/>
	<polygon display="inline" fill="#4F4F4F" points="143.5,376.3 200.4,343.7 199.9,278.1 143.2,310.8 	"/>
	<polygon display="inline" fill="#4F4F4F" points="18.9,175.1 19,240.6 -37.5,273 -37.6,207.8 	"/>
	<polygon display="inline" fill="#939292" points="-37.5,273 19.2,306.1 75.7,272.8 19,240 	"/>
	<polygon display="inline" fill="#939292" points="212.5,271.5 269.2,238.8 325.5,271.7 269,304.2 	"/>
	<polygon display="inline" fill="#4F4F4F" points="325.5,271.7 325.9,206.1 268.9,173.6 268.7,239.1 	"/>
	<polygon display="inline" fill="#4F4F4F" points="200.7,55.2 144.1,22.3 144.7,-42.9 201,-10.1 	"/>
	<polygon display="inline" fill="#939292" points="144.7,-42.9 87.5,-10.6 87.7,55 144.6,22.6 	"/>
</g>
<g id="Layer_2">
	<polygon fill="#0A72B3" points="145,220 145,154.6 88.4,122.2 88.4,187.4 	"/>
	<polygon fill="#93D2F4" points="94.6,112.8 151.2,79.6 207.8,112.8 151.2,145.6 	"/>
	<polygon fill="#0E3F75" points="223.2,181.5 223.2,116 279.9,83.7 279.9,148.9 	"/>
	<polygon fill="#93D2F4" points="207.8,35.8 151.2,2.6 94.6,35.8 151.2,68.6 	"/>
	<polygon fill="#0E3F75" points="223.2,258.5 223.2,193.1 279.9,160.8 279.9,226 	"/>
	<polygon fill="#0E3F75" points="156.2,220.2 156.2,154.8 212.8,122.4 212.8,187.6 	"/>
	<polygon fill="#0E3F75" points="156.2,297.2 156.2,231.8 212.8,199.5 212.8,264.7 	"/>
	<polygon fill="#93D2F4" points="274.9,73.8 218.2,40.6 161.6,73.8 218.2,106.6 	"/>
	<polygon fill="#0A72B3" points="76.8,181.4 76.8,115.9 20.1,83.6 20.1,148.8 	"/>
	<polygon fill="#0A72B3" points="145,297.4 145,231.9 88.4,199.6 88.4,264.8 	"/>
	<polygon fill="#0A72B3" points="76.8,258.7 76.8,193.3 20.1,160.9 20.1,226.1 	"/>
	<polygon fill="#93D2F4" points="26.3,74.1 83,41 139.6,74.1 83,107 	"/>
</g>
</svg>
