<?xml version="1.0" encoding="utf-8"?>
<!-- Generator: Adobe Illustrator 18.0.0, SVG Export Plug-In . SVG Version: 6.00 Build 0)  -->
<!DOCTYPE svg PUBLIC "-//W3C//DTD SVG 1.1//EN" "http://www.w3.org/Graphics/SVG/1.1/DTD/svg11.dtd">
<svg version="1.1" xmlns="http://www.w3.org/2000/svg" xmlns:xlink="http://www.w3.org/1999/xlink" x="0px" y="0px"
	 viewBox="0 0 600 600" enable-background="new 0 0 600 600" xml:space="preserve">
<g id="Layer_2">
</g>
<g id="Layer_1">
	<path fill="#83A3D5" stroke="#83A3D5" stroke-width="0.1645" stroke-linecap="round" stroke-linejoin="round" d="M294,244.3
		l-5.4,0.8l-4,2l-2.8,0.4L294,244.3z"/>
	<path fill="#557BBE" stroke="#557BBE" stroke-width="0.1645" stroke-linecap="round" stroke-linejoin="round" d="M277.9,248.6
		l-5.7,2.8l12.3-4.7l-2.7,1.3L277.9,248.6z"/>
	<path fill="#557BBE" stroke="#557BBE" stroke-width="0.1645" stroke-linecap="round" stroke-linejoin="round" d="M272.3,251.4
		l21.7-7.1l-12.3,3.3l2.9-0.9L272.3,251.4z"/>
	<path fill="#557BBE" stroke="#557BBE" stroke-width="0.1645" stroke-linecap="round" stroke-linejoin="round" d="M245.4,288.4
		l-0.9,5.4l0.7,4.5l-0.5,2.8L245.4,288.4z"/>
	<path fill="#557BBE" stroke="#557BBE" stroke-width="0.1645" stroke-linecap="round" stroke-linejoin="round" d="M244.5,305
		l0.9,6.2l-0.6-13.2l0.4,2.9L244.5,305z"/>
	<path fill="#557BBE" stroke="#557BBE" stroke-width="0.1645" stroke-linecap="round" stroke-linejoin="round" d="M245.4,311.3
		l0-22.9l-0.7,12.7l0-3L245.4,311.3z"/>
	<path fill="#83A3D5" stroke="#83A3D5" stroke-width="0.1645" stroke-linecap="round" stroke-linejoin="round" d="M272.3,348.2
		l4.9,2.5l4.5,0.7l2.5,1.3L272.3,348.2z"/>
	<path fill="#83A3D5" stroke="#83A3D5" stroke-width="0.1645" stroke-linecap="round" stroke-linejoin="round" d="M287.8,354.2
		l6.2,1.1l-12.7-3.5l2.9,0.5L287.8,354.2z"/>
	<path fill="#83A3D5" stroke="#83A3D5" stroke-width="0.1645" stroke-linecap="round" stroke-linejoin="round" d="M294,355.3
		l-21.7-7.1l11.9,4.6l-2.9-1L294,355.3z"/>
	<path fill="#629DD4" stroke="#629DD4" stroke-width="0.1645" stroke-linecap="round" stroke-linejoin="round" d="M337.5,341.2
		l3.9-3.9l2.1-4l2-2L337.5,341.2z"/>
	<path fill="#629DD4" stroke="#629DD4" stroke-width="0.1645" stroke-linecap="round" stroke-linejoin="round" d="M348,328.3
		l2.9-5.6l-7.2,11l1.4-2.6L348,328.3z"/>
	<path fill="#629DD4" stroke="#629DD4" stroke-width="0.1645" stroke-linecap="round" stroke-linejoin="round" d="M350.9,322.7
		l-13.4,18.5l8-9.9l-1.8,2.4L350.9,322.7z"/>
	<path fill="#83A3D5" stroke="#83A3D5" stroke-width="0.1645" stroke-linecap="round" stroke-linejoin="round" d="M350.9,277
		l-2.5-4.9l-3.2-3.2l-1.3-2.5L350.9,277z"/>
	<path fill="#83A3D5" stroke="#83A3D5" stroke-width="0.1645" stroke-linecap="round" stroke-linejoin="round" d="M341.9,263
		l-4.4-4.5l8.3,10.3l-2-2.1L341.9,263z"/>
	<path fill="#83A3D5" stroke="#83A3D5" stroke-width="0.1645" stroke-linecap="round" stroke-linejoin="round" d="M337.5,258.5
		l13.4,18.5l-6.9-10.7l1.7,2.4L337.5,258.5z"/>
	<path fill="#83A3D5" stroke="#83A3D5" stroke-width="0.1645" stroke-linecap="round" stroke-linejoin="round" d="M354.6,311.3
		l0.9-6.2l-0.6-4l0.4-2.9L354.6,311.3z"/>
	<path fill="#83A3D5" stroke="#83A3D5" stroke-width="0.1645" stroke-linecap="round" stroke-linejoin="round" d="M355.5,293.8
		l-0.9-5.4l0.7,12.7l-0.5-2.8L355.5,293.8z"/>
	<path fill="#83A3D5" stroke="#83A3D5" stroke-width="0.1645" stroke-linecap="round" stroke-linejoin="round" d="M354.6,288.4v22.9
		l0.6-13.2l0,3L354.6,288.4z"/>
	<path fill="#83A3D5" stroke="#83A3D5" stroke-width="0.1645" stroke-linecap="round" stroke-linejoin="round" d="M327.8,251.4
		l-5.7-2.8l-4-0.6l-2.7-1.3L327.8,251.4z"/>
	<path fill="#83A3D5" stroke="#83A3D5" stroke-width="0.1645" stroke-linecap="round" stroke-linejoin="round" d="M311.4,245.2
		l-5.4-0.8l12.3,3.3l-2.8-0.4L311.4,245.2z"/>
	<path fill="#83A3D5" stroke="#83A3D5" stroke-width="0.1645" stroke-linecap="round" stroke-linejoin="round" d="M306,244.3
		l21.7,7.1l-12.3-4.7l2.9,0.9L306,244.3z"/>
	<path fill="#557BBE" stroke="#557BBE" stroke-width="0.1645" stroke-linecap="round" stroke-linejoin="round" d="M262.5,258.5
		l-4.4,4.5l-1.8,3.6l-2,2.1L262.5,258.5z"/>
	<path fill="#557BBE" stroke="#557BBE" stroke-width="0.1645" stroke-linecap="round" stroke-linejoin="round" d="M251.6,272.1
		l-2.5,4.9l6.9-10.7l-1.3,2.6L251.6,272.1z"/>
	<path fill="#557BBE" stroke="#557BBE" stroke-width="0.1645" stroke-linecap="round" stroke-linejoin="round" d="M249.1,277
		l13.4-18.5l-8.3,10.3l1.7-2.5L249.1,277z"/>
	<path fill="#557BBE" stroke="#557BBE" stroke-width="0.1645" stroke-linecap="round" stroke-linejoin="round" d="M249.1,322.7
		l2.9,5.6l2.9,2.9l1.4,2.6L249.1,322.7z"/>
	<path fill="#557BBE" stroke="#557BBE" stroke-width="0.1645" stroke-linecap="round" stroke-linejoin="round" d="M258.6,337.3
		l3.9,3.9l-8-9.9l2,2L258.6,337.3z"/>
	<path fill="#557BBE" stroke="#557BBE" stroke-width="0.1645" stroke-linecap="round" stroke-linejoin="round" d="M262.5,341.2
		l-13.4-18.5l7.2,11l-1.8-2.4L262.5,341.2z"/>
	<path fill="#83BDE7" stroke="#83BDE7" stroke-width="0.1645" stroke-linecap="round" stroke-linejoin="round" d="M306,355.3
		l6.2-1.1l3.6-1.8l2.9-0.5L306,355.3z"/>
	<path fill="#83BDE7" stroke="#83BDE7" stroke-width="0.1645" stroke-linecap="round" stroke-linejoin="round" d="M322.9,350.7
		l4.9-2.5l-11.9,4.6l2.5-1.3L322.9,350.7z"/>
	<path fill="#83BDE7" stroke="#83BDE7" stroke-width="0.1645" stroke-linecap="round" stroke-linejoin="round" d="M327.8,348.2
		l-21.7,7.1l12.7-3.5l-2.9,1L327.8,348.2z"/>
	<path fill="#557BBE" stroke="#557BBE" stroke-width="0.1645" stroke-linecap="round" stroke-linejoin="round" d="M288.6,245.2
		l-10.7,3.4l4-0.6l2.6-0.8L288.6,245.2z"/>
	<path fill="#557BBE" stroke="#557BBE" stroke-width="0.1645" stroke-linecap="round" stroke-linejoin="round" d="M244.5,293.8
		l0,11.2l0.6-4l0.1-2.7L244.5,293.8z"/>
	<path fill="#83A3D5" stroke="#83A3D5" stroke-width="0.1645" stroke-linecap="round" stroke-linejoin="round" d="M277.1,350.7
		l10.6,3.5l-3.6-1.8l-2.6-0.9L277.1,350.7z"/>
	<path fill="#629DD4" stroke="#629DD4" stroke-width="0.1645" stroke-linecap="round" stroke-linejoin="round" d="M341.4,337.3
		l6.6-9l-2.9,2.9l-1.7,2.2L341.4,337.3z"/>
	<path fill="#83A3D5" stroke="#83A3D5" stroke-width="0.1645" stroke-linecap="round" stroke-linejoin="round" d="M348.4,272.1
		l-6.6-9.1l1.9,3.6l1.5,2.2L348.4,272.1z"/>
	<path fill="#83A3D5" stroke="#83A3D5" stroke-width="0.1645" stroke-linecap="round" stroke-linejoin="round" d="M355.5,305l0-11.2
		l-0.7,4.5l0.1,2.7L355.5,305z"/>
	<path fill="#83A3D5" stroke="#83A3D5" stroke-width="0.1645" stroke-linecap="round" stroke-linejoin="round" d="M322.1,248.6
		l-10.7-3.4l4,2l2.6,0.8L322.1,248.6z"/>
	<path fill="#557BBE" stroke="#557BBE" stroke-width="0.1645" stroke-linecap="round" stroke-linejoin="round" d="M258.1,263
		l-6.6,9.1l3.2-3.2l1.6-2.2L258.1,263z"/>
	<path fill="#557BBE" stroke="#557BBE" stroke-width="0.1645" stroke-linecap="round" stroke-linejoin="round" d="M252,328.3l6.6,9
		l-2.1-4l-1.6-2.2L252,328.3z"/>
	<path fill="#83BDE7" stroke="#83BDE7" stroke-width="0.1645" stroke-linecap="round" stroke-linejoin="round" d="M312.2,354.2
		l10.7-3.5l-4.5,0.7l-2.6,0.9L312.2,354.2z"/>
	<path fill="#C5E0ED" stroke="#C5E0ED" stroke-width="0.1645" stroke-linecap="round" stroke-linejoin="round" d="M262.6,30
		l15.7-2.8l-5.9-0.5l-20.7,3.5L262.6,30z"/>
	<path fill="#C5E0ED" stroke="#C5E0ED" stroke-width="0.1645" stroke-linecap="round" stroke-linejoin="round" d="M278.2,27.2h43.6
		l5.9-0.5h-55.3L278.2,27.2z"/>
	<path fill="#C5E0ED" stroke="#C5E0ED" stroke-width="0.1645" stroke-linecap="round" stroke-linejoin="round" d="M321.8,27.2
		l15.6,2.8l10.9,0.2l-20.7-3.5L321.8,27.2z"/>
	<path fill="#C5E0ED" stroke="#C5E0ED" stroke-width="0.1645" stroke-linecap="round" stroke-linejoin="round" d="M31.8,252
		l2.2-15.7l-2.3,5.4l-3,20.7L31.8,252z"/>
	<path fill="#C5E0ED" stroke="#C5E0ED" stroke-width="0.1645" stroke-linecap="round" stroke-linejoin="round" d="M34,236.3
		l13.5-41.4l1.3-5.7l-17.1,52.6L34,236.3z"/>
	<path fill="#C5E0ED" stroke="#C5E0ED" stroke-width="0.1645" stroke-linecap="round" stroke-linejoin="round" d="M47.5,194.9
		l7.5-14l3.6-10.3l-9.8,18.5L47.5,194.9z"/>
	<path fill="#83A3D5" stroke="#83A3D5" stroke-width="0.1645" stroke-linecap="round" stroke-linejoin="round" d="M171.7,540.1
		l-14.3-6.9l4.4,3.9l18.8,9.3L171.7,540.1z"/>
	<path fill="#83A3D5" stroke="#83A3D5" stroke-width="0.1645" stroke-linecap="round" stroke-linejoin="round" d="M157.4,533.2
		l-35.2-25.6l-5.1-3l44.7,32.5L157.4,533.2z"/>
	<path fill="#83A3D5" stroke="#83A3D5" stroke-width="0.1645" stroke-linecap="round" stroke-linejoin="round" d="M122.2,507.6
		l-11-11.4l-8.7-6.6l14.6,15L122.2,507.6z"/>
	<path fill="#557BBE" stroke="#557BBE" stroke-width="0.1645" stroke-linecap="round" stroke-linejoin="round" d="M488.9,496.1
		l-11,11.4l5.1-3l14.6-15L488.9,496.1z"/>
	<path fill="#557BBE" stroke="#557BBE" stroke-width="0.1645" stroke-linecap="round" stroke-linejoin="round" d="M477.8,507.6
		l-35.2,25.6l-4.4,3.9l44.7-32.5L477.8,507.6z"/>
	<path fill="#557BBE" stroke="#557BBE" stroke-width="0.1645" stroke-linecap="round" stroke-linejoin="round" d="M442.6,533.2
		l-14.3,6.9l-8.9,6.2l18.8-9.3L442.6,533.2z"/>
	<path fill="#557BBE" stroke="#557BBE" stroke-width="0.1645" stroke-linecap="round" stroke-linejoin="round" d="M545,180.9l7.5,14
		l-1.3-5.7l-9.8-18.5L545,180.9z"/>
	<path fill="#557BBE" stroke="#557BBE" stroke-width="0.1645" stroke-linecap="round" stroke-linejoin="round" d="M552.5,194.9
		l13.5,41.4l2.3,5.4l-17.1-52.6L552.5,194.9z"/>
	<path fill="#557BBE" stroke="#557BBE" stroke-width="0.1645" stroke-linecap="round" stroke-linejoin="round" d="M566,236.3
		l2.2,15.7l3.1,10.4l-3-20.7L566,236.3z"/>
	<path fill="#6E8BC6" stroke="#6E8BC6" stroke-width="0.1645" stroke-linecap="round" stroke-linejoin="round" d="M481.8,95.6
		l17.2,21.6l8.5,6.1l-21.1-25.9L481.8,95.6z"/>
	<path fill="#6E8BC6" stroke="#6E8BC6" stroke-width="0.1645" stroke-linecap="round" stroke-linejoin="round" d="M412.2,54.1
		l25.8,9.7l-3.1-3.9l-31.2-12L412.2,54.1z"/>
	<path fill="#6E8BC6" stroke="#6E8BC6" stroke-width="0.1645" stroke-linecap="round" stroke-linejoin="round" d="M438.1,63.8
		l43.8,31.8l4.7,1.7L435,59.8L438.1,63.8z"/>
	<path fill="#C5E0ED" stroke="#C5E0ED" stroke-width="0.1645" stroke-linecap="round" stroke-linejoin="round" d="M161.9,63.8
		l25.8-9.7l8.4-6.2l-31.2,12L161.9,63.8z"/>
	<path fill="#C5E0ED" stroke="#C5E0ED" stroke-width="0.1645" stroke-linecap="round" stroke-linejoin="round" d="M100.9,117.1
		l17.2-21.6l-4.7,1.7l-21.1,25.9L100.9,117.1z"/>
	<path fill="#C5E0ED" stroke="#C5E0ED" stroke-width="0.1645" stroke-linecap="round" stroke-linejoin="round" d="M118.2,95.6
		l43.8-31.8l3.1-3.9l-51.5,37.5L118.2,95.6z"/>
	<path fill="#C5E0ED" stroke="#C5E0ED" stroke-width="0.1645" stroke-linecap="round" stroke-linejoin="round" d="M32.8,358.2
		l-1.3-27.6l-3.3-9.9l1.8,33.4L32.8,358.2z"/>
	<path fill="#C5E0ED" stroke="#C5E0ED" stroke-width="0.1645" stroke-linecap="round" stroke-linejoin="round" d="M64.7,432.7
		l-15.2-23l0.2,5l18.2,28L64.7,432.7z"/>
	<path fill="#C5E0ED" stroke="#C5E0ED" stroke-width="0.1645" stroke-linecap="round" stroke-linejoin="round" d="M49.6,409.6
		l-16.7-51.5l-2.8-4.2l19.7,60.6L49.6,409.6z"/>
	<path fill="#557BBE" stroke="#557BBE" stroke-width="0.1645" stroke-linecap="round" stroke-linejoin="round" d="M273,572
		l-26.6-7.3l-10.5,0.1l32.3,8.6L273,572z"/>
	<path fill="#557BBE" stroke="#557BBE" stroke-width="0.1645" stroke-linecap="round" stroke-linejoin="round" d="M353.7,564.6
		l-26.6,7.3l4.8,1.4l32.3-8.6L353.7,564.6z"/>
	<path fill="#557BBE" stroke="#557BBE" stroke-width="0.1645" stroke-linecap="round" stroke-linejoin="round" d="M327.1,572H273
		l-4.8,1.4h63.7L327.1,572z"/>
	<path fill="#557BBE" stroke="#557BBE" stroke-width="0.1645" stroke-linecap="round" stroke-linejoin="round" d="M550.5,409.6
		l-15.2,23l-3.2,10l18.2-28L550.5,409.6z"/>
	<path fill="#557BBE" stroke="#557BBE" stroke-width="0.1645" stroke-linecap="round" stroke-linejoin="round" d="M568.4,330.6
		l-1.2,27.6l2.8-4.2l1.8-33.4L568.4,330.6z"/>
	<path fill="#557BBE" stroke="#557BBE" stroke-width="0.1645" stroke-linecap="round" stroke-linejoin="round" d="M567.2,358.2
		l-16.7,51.5l-0.2,5l19.7-60.6L567.2,358.2z"/>
	<path fill="#C5E0ED" stroke="#C5E0ED" stroke-width="0.1645" stroke-linecap="round" stroke-linejoin="round" d="M337.4,30
		L300,31.9v0.8l48.3-2.5L337.4,30z"/>
	<path fill="#C5E0ED" stroke="#C5E0ED" stroke-width="0.1645" stroke-linecap="round" stroke-linejoin="round" d="M300,31.9
		L262.6,30l-10.9,0.2l48.3,2.5V31.9z"/>
	<path fill="#C5E0ED" stroke="#C5E0ED" stroke-width="0.1645" stroke-linecap="round" stroke-linejoin="round" d="M55,180.9
		L45.2,217l0.8,0.3l12.6-46.7L55,180.9z"/>
	<path fill="#C5E0ED" stroke="#C5E0ED" stroke-width="0.1645" stroke-linecap="round" stroke-linejoin="round" d="M45.2,217
		l-13.4,35l-3.1,10.4L46,217.3L45.2,217z"/>
	<path fill="#83A3D5" stroke="#83A3D5" stroke-width="0.1645" stroke-linecap="round" stroke-linejoin="round" d="M111.1,496.1
		l31.4,20.5l0.5-0.7l-40.5-26.4L111.1,496.1z"/>
	<path fill="#83A3D5" stroke="#83A3D5" stroke-width="0.1645" stroke-linecap="round" stroke-linejoin="round" d="M142.5,516.6
		l29.2,23.5l8.9,6.2L143,515.9L142.5,516.6z"/>
	<path fill="#557BBE" stroke="#557BBE" stroke-width="0.1645" stroke-linecap="round" stroke-linejoin="round" d="M428.3,540.1
		l29.2-23.5l-0.5-0.7l-37.6,30.4L428.3,540.1z"/>
	<path fill="#557BBE" stroke="#557BBE" stroke-width="0.1645" stroke-linecap="round" stroke-linejoin="round" d="M457.5,516.6
		l31.4-20.5l8.7-6.6L457,515.9L457.5,516.6z"/>
	<path fill="#557BBE" stroke="#557BBE" stroke-width="0.1645" stroke-linecap="round" stroke-linejoin="round" d="M568.2,252
		l-13.4-35l-0.8,0.3l17.3,45.2L568.2,252z"/>
	<path fill="#557BBE" stroke="#557BBE" stroke-width="0.1645" stroke-linecap="round" stroke-linejoin="round" d="M554.8,217
		l-9.8-36.2l-3.6-10.3l12.6,46.7L554.8,217z"/>
	<path fill="#6D8AC6" stroke="#6D8AC6" stroke-width="0.1645" stroke-linecap="round" stroke-linejoin="round" d="M509.3,130.5
		l28,39.5l4.1,0.6l-33.9-47.3L509.3,130.5z"/>
	<path fill="#6E8BC6" stroke="#6E8BC6" stroke-width="0.1645" stroke-linecap="round" stroke-linejoin="round" d="M537.3,170
		l10.4,39.4l6.3,7.9l-12.6-46.7L537.3,170z"/>
	<path fill="#C5E0ED" stroke="#C5E0ED" stroke-width="0.1645" stroke-linecap="round" stroke-linejoin="round" d="M309.4,36.3
		l40.7-2.3l-1.8-3.8L300,32.7L309.4,36.3z"/>
	<path fill="#C5E0ED" stroke="#C5E0ED" stroke-width="0.1645" stroke-linecap="round" stroke-linejoin="round" d="M350.1,34
		l46.2,14.5l7.4-0.6l-55.5-17.6L350.1,34z"/>
	<path fill="#C5E0ED" stroke="#C5E0ED" stroke-width="0.1645" stroke-linecap="round" stroke-linejoin="round" d="M203.6,48.5
		L249.9,34l1.8-3.8l-55.5,17.6L203.6,48.5z"/>
	<path fill="#C5E0ED" stroke="#C5E0ED" stroke-width="0.1645" stroke-linecap="round" stroke-linejoin="round" d="M249.9,34
		l40.7,2.3l9.5-3.5l-48.3-2.5L249.9,34z"/>
	<path fill="#C5E0ED" stroke="#C5E0ED" stroke-width="0.1645" stroke-linecap="round" stroke-linejoin="round" d="M52.3,209.4
		L62.7,170l-4.1,0.6L46,217.3L52.3,209.4z"/>
	<path fill="#C5E0ED" stroke="#C5E0ED" stroke-width="0.1645" stroke-linecap="round" stroke-linejoin="round" d="M62.7,170l28-39.5
		l1.7-7.3l-33.9,47.4L62.7,170z"/>
	<path fill="#C5E0ED" stroke="#C5E0ED" stroke-width="0.1645" stroke-linecap="round" stroke-linejoin="round" d="M31.2,313.8
		l0.5-48.4l-3-2.9l-0.4,58.2L31.2,313.8z"/>
	<path fill="#C5E0ED" stroke="#C5E0ED" stroke-width="0.1645" stroke-linecap="round" stroke-linejoin="round" d="M31.7,265.3
		l14.7-38L46,217.3l-17.3,45.2L31.7,265.3z"/>
	<path fill="#C5E0ED" stroke="#C5E0ED" stroke-width="0.1645" stroke-linecap="round" stroke-linejoin="round" d="M137.4,507.5
		l-34.2-22.1l-0.7,4.1l40.5,26.4L137.4,507.5z"/>
	<path fill="#C5E0ED" stroke="#C5E0ED" stroke-width="0.1645" stroke-linecap="round" stroke-linejoin="round" d="M103.2,485.4
		l-28.9-38.9l-6.4-3.9l34.6,46.9L103.2,485.4z"/>
	<path fill="#83A3D5" stroke="#83A3D5" stroke-width="0.1645" stroke-linecap="round" stroke-linejoin="round" d="M230.2,559.8
		l-45.9-15.5l-3.7,2l55.2,18.4L230.2,559.8z"/>
	<path fill="#83A3D5" stroke="#83A3D5" stroke-width="0.1645" stroke-linecap="round" stroke-linejoin="round" d="M184.3,544.3
		l-31.6-25.7l-9.7-2.7l37.6,30.4L184.3,544.3z"/>
	<path fill="#557BBE" stroke="#557BBE" stroke-width="0.1645" stroke-linecap="round" stroke-linejoin="round" d="M447.3,518.6
		l-31.6,25.7l3.7,2l37.6-30.4L447.3,518.6z"/>
	<path fill="#557BBE" stroke="#557BBE" stroke-width="0.1645" stroke-linecap="round" stroke-linejoin="round" d="M415.7,544.3
		l-45.9,15.5l-5.7,4.9l55.2-18.4L415.7,544.3z"/>
	<path fill="#557BBE" stroke="#557BBE" stroke-width="0.1645" stroke-linecap="round" stroke-linejoin="round" d="M525.7,446.5
		l-28.9,38.9l0.7,4.1l34.6-46.9L525.7,446.5z"/>
	<path fill="#557BBE" stroke="#557BBE" stroke-width="0.1645" stroke-linecap="round" stroke-linejoin="round" d="M496.8,485.4
		l-34.2,22.1l-5.6,8.4l40.5-26.4L496.8,485.4z"/>
	<path fill="#557BBE" stroke="#557BBE" stroke-width="0.1645" stroke-linecap="round" stroke-linejoin="round" d="M553.6,227.4
		l14.7,38l3-2.9L554,217.3L553.6,227.4z"/>
	<path fill="#557BBE" stroke="#557BBE" stroke-width="0.1645" stroke-linecap="round" stroke-linejoin="round" d="M568.3,265.3
		l0.5,48.4l2.9,6.9l-0.4-58.2L568.3,265.3z"/>
	<path fill="#6B89C5" stroke="#6B89C5" stroke-width="0.1645" stroke-linecap="round" stroke-linejoin="round" d="M486.2,125
		l23.1,5.6l-1.7-7.3l-28.1-7.5L486.2,125z"/>
	<path fill="#C5E0ED" stroke="#C5E0ED" stroke-width="0.1645" stroke-linecap="round" stroke-linejoin="round" d="M396.3,48.5
		l12.4,20.3l10.8,3.5l-15.8-24.4L396.3,48.5z"/>
	<path fill="#C5E0ED" stroke="#C5E0ED" stroke-width="0.1645" stroke-linecap="round" stroke-linejoin="round" d="M191.2,68.7
		l12.4-20.3l-7.4-0.6l-15.8,24.4L191.2,68.7z"/>
	<path fill="#C5E0ED" stroke="#C5E0ED" stroke-width="0.1645" stroke-linecap="round" stroke-linejoin="round" d="M90.7,130.5
		l23.1-5.6l6.7-9.2l-28.1,7.5L90.7,130.5z"/>
	<path fill="#C5E0ED" stroke="#C5E0ED" stroke-width="0.1645" stroke-linecap="round" stroke-linejoin="round" d="M46.6,331.9
		l-15.4-18.1l-2.9,6.9l18.3,22.6L46.6,331.9z"/>
	<path fill="#C5E0ED" stroke="#C5E0ED" stroke-width="0.1645" stroke-linecap="round" stroke-linejoin="round" d="M74.3,446.6
		l1.8-23.7l-6.7-9.2l-1.6,29.1L74.3,446.6z"/>
	<path fill="#83A3D5" stroke="#83A3D5" stroke-width="0.1645" stroke-linecap="round" stroke-linejoin="round" d="M252.2,550.7
		l-22,9.1l5.7,4.9l27.2-10.4L252.2,550.7z"/>
	<path fill="#557BBE" stroke="#557BBE" stroke-width="0.1645" stroke-linecap="round" stroke-linejoin="round" d="M369.8,559.8
		l-22-9.1l-10.9,3.5l27.2,10.5L369.8,559.8z"/>
	<path fill="#557BBE" stroke="#557BBE" stroke-width="0.1645" stroke-linecap="round" stroke-linejoin="round" d="M523.8,422.8
		l1.9,23.7l6.4-3.9l-1.5-29.1L523.8,422.8z"/>
	<path fill="#557BBE" stroke="#557BBE" stroke-width="0.1645" stroke-linecap="round" stroke-linejoin="round" d="M568.8,313.8
		l-15.4,18.1l0,11.4l18.3-22.6L568.8,313.8z"/>
	<path fill="#6E8BC6" stroke="#6E8BC6" stroke-width="0.1645" stroke-linecap="round" stroke-linejoin="round" d="M499.1,117.1
		l-23.6-6.7l4,5.2l28.1,7.5L499.1,117.1z"/>
	<path fill="#6E8BC6" stroke="#6E8BC6" stroke-width="0.1645" stroke-linecap="round" stroke-linejoin="round" d="M425.9,74.5
		l-13.6-20.4l-8.4-6.2l15.8,24.4L425.9,74.5z"/>
	<path fill="#C5E0ED" stroke="#C5E0ED" stroke-width="0.1645" stroke-linecap="round" stroke-linejoin="round" d="M187.8,54.1
		l-13.6,20.4l6.2-2.2l15.8-24.4L187.8,54.1z"/>
	<path fill="#C5E0ED" stroke="#C5E0ED" stroke-width="0.1645" stroke-linecap="round" stroke-linejoin="round" d="M124.6,110.5
		l-23.7,6.7l-8.5,6.1l28.1-7.5L124.6,110.5z"/>
	<path fill="#C5E0ED" stroke="#C5E0ED" stroke-width="0.1645" stroke-linecap="round" stroke-linejoin="round" d="M31.6,330.6
		l15.2,19.3l-0.2-6.6l-18.3-22.6L31.6,330.6z"/>
	<path fill="#C5E0ED" stroke="#C5E0ED" stroke-width="0.1645" stroke-linecap="round" stroke-linejoin="round" d="M65.7,408.1
		l-1,24.5l3.2,10l1.6-29.1L65.7,408.1z"/>
	<path fill="#557BBE" stroke="#557BBE" stroke-width="0.1645" stroke-linecap="round" stroke-linejoin="round" d="M246.3,564.6
		l23-8.5l-6.4-1.9l-27.2,10.4L246.3,564.6z"/>
	<path fill="#557BBE" stroke="#557BBE" stroke-width="0.1645" stroke-linecap="round" stroke-linejoin="round" d="M330.6,556.1
		l23,8.5l10.5,0.1L337,554.2L330.6,556.1z"/>
	<path fill="#557BBE" stroke="#557BBE" stroke-width="0.1645" stroke-linecap="round" stroke-linejoin="round" d="M535.3,432.7
		l-1-24.5l-3.7,5.5l1.5,29.1L535.3,432.7z"/>
	<path fill="#557BBE" stroke="#557BBE" stroke-width="0.1645" stroke-linecap="round" stroke-linejoin="round" d="M553.2,349.9
		l15.2-19.3l3.3-9.9l-18.3,22.6L553.2,349.9z"/>
	<path fill="#6D8AC6" stroke="#6D8AC6" stroke-width="0.1645" stroke-linecap="round" stroke-linejoin="round" d="M547.8,209.4
		l-18,5.2l2.5,9.8l21.8-7.1L547.8,209.4z"/>
	<path fill="#C5E0ED" stroke="#C5E0ED" stroke-width="0.1645" stroke-linecap="round" stroke-linejoin="round" d="M310.1,54.9
		l-0.6-18.7l-9.4-3.5v22.9L310.1,54.9z"/>
	<path fill="#C5E0ED" stroke="#C5E0ED" stroke-width="0.1645" stroke-linecap="round" stroke-linejoin="round" d="M290.6,36.3
		l-0.7,18.7l10.1,0.7V32.7L290.6,36.3z"/>
	<path fill="#C5E0ED" stroke="#C5E0ED" stroke-width="0.1645" stroke-linecap="round" stroke-linejoin="round" d="M70.2,214.5
		l-18-5.2l-6.3,7.9l21.8,7.1L70.2,214.5z"/>
	<path fill="#C5E0ED" stroke="#C5E0ED" stroke-width="0.1645" stroke-linecap="round" stroke-linejoin="round" d="M46.4,227.4
		l17.6,6.4l3.8-9.4L46,217.3L46.4,227.4z"/>
	<path fill="#C5E0ED" stroke="#C5E0ED" stroke-width="0.1645" stroke-linecap="round" stroke-linejoin="round" d="M147.9,492
		l-10.5,15.5l5.6,8.4l13.5-18.5L147.9,492z"/>
	<path fill="#83A3D5" stroke="#83A3D5" stroke-width="0.1645" stroke-linecap="round" stroke-linejoin="round" d="M152.7,518.6
		l11.5-14.7l-7.8-6.5L143,515.9L152.7,518.6z"/>
	<path fill="#557BBE" stroke="#557BBE" stroke-width="0.1645" stroke-linecap="round" stroke-linejoin="round" d="M435.8,503.9
		l11.5,14.7l9.7-2.7l-13.4-18.5L435.8,503.9z"/>
	<path fill="#557BBE" stroke="#557BBE" stroke-width="0.1645" stroke-linecap="round" stroke-linejoin="round" d="M462.6,507.5
		L452.1,492l-8.6,5.4l13.4,18.5L462.6,507.5z"/>
	<path fill="#577CBE" stroke="#577CBE" stroke-width="0.1645" stroke-linecap="round" stroke-linejoin="round" d="M536,233.7
		l17.6-6.4l0.4-10.1l-21.8,7.1L536,233.7z"/>
	<path fill="#6E8BC6" stroke="#6E8BC6" stroke-width="0.1645" stroke-linecap="round" stroke-linejoin="round" d="M475.4,110.5
		l-49.5-36l-6.2-2.2l59.8,43.5L475.4,110.5z"/>
	<path fill="#C5E0ED" stroke="#C5E0ED" stroke-width="0.1645" stroke-linecap="round" stroke-linejoin="round" d="M174.1,74.5
		l-49.5,36l-4.1,5.2l59.8-43.5L174.1,74.5z"/>
	<path fill="#C5E0ED" stroke="#C5E0ED" stroke-width="0.1645" stroke-linecap="round" stroke-linejoin="round" d="M46.8,349.9
		l18.9,58.2l3.7,5.5l-22.8-70.3L46.8,349.9z"/>
	<path fill="#557BBE" stroke="#557BBE" stroke-width="0.1645" stroke-linecap="round" stroke-linejoin="round" d="M269.4,556.1h61.2
		l6.4-1.9l-73.9,0L269.4,556.1z"/>
	<path fill="#557BBE" stroke="#557BBE" stroke-width="0.1645" stroke-linecap="round" stroke-linejoin="round" d="M534.3,408.1
		l18.9-58.2l0.2-6.6l-22.9,70.3L534.3,408.1z"/>
	<path fill="#6B89C5" stroke="#6B89C5" stroke-width="0.1645" stroke-linecap="round" stroke-linejoin="round" d="M496.2,170.9
		l-10-46l-6.7-9.2l11.7,55L496.2,170.9z"/>
	<path fill="#C5E0ED" stroke="#C5E0ED" stroke-width="0.1645" stroke-linecap="round" stroke-linejoin="round" d="M408.8,68.7
		L362,73.4l1.8,4.7l55.9-5.9L408.8,68.7z"/>
	<path fill="#C5E0ED" stroke="#C5E0ED" stroke-width="0.1645" stroke-linecap="round" stroke-linejoin="round" d="M238.1,73.4
		l-46.8-4.7l-10.8,3.5l55.9,5.9L238.1,73.4z"/>
	<path fill="#C5E0ED" stroke="#C5E0ED" stroke-width="0.1645" stroke-linecap="round" stroke-linejoin="round" d="M113.8,125l-10,46
		l5.1-0.2l11.7-55L113.8,125z"/>
	<path fill="#C5E0ED" stroke="#C5E0ED" stroke-width="0.1645" stroke-linecap="round" stroke-linejoin="round" d="M65.5,288.8
		l-18.9,43.1l0,11.4l22.9-51.4L65.5,288.8z"/>
	<path fill="#C5E0ED" stroke="#C5E0ED" stroke-width="0.1645" stroke-linecap="round" stroke-linejoin="round" d="M76.2,422.8
		l40.6,23.8l1.4-4.9l-48.7-28.1L76.2,422.8z"/>
	<path fill="#83A3D5" stroke="#83A3D5" stroke-width="0.1645" stroke-linecap="round" stroke-linejoin="round" d="M217,519.4
		l35.1,31.3l10.9,3.5l-41.8-37.6L217,519.4z"/>
	<path fill="#557BBE" stroke="#557BBE" stroke-width="0.1645" stroke-linecap="round" stroke-linejoin="round" d="M347.8,550.7
		l35.2-31.3l-4.2-2.8L337,554.2L347.8,550.7z"/>
	<path fill="#557BBE" stroke="#557BBE" stroke-width="0.1645" stroke-linecap="round" stroke-linejoin="round" d="M483.2,446.6
		l40.6-23.8l6.7-9.2l-48.7,28.1L483.2,446.6z"/>
	<path fill="#557BBE" stroke="#557BBE" stroke-width="0.1645" stroke-linecap="round" stroke-linejoin="round" d="M553.4,331.9
		l-18.9-43.1l-4,3.1l22.9,51.4L553.4,331.9z"/>
	<path fill="#99AAD7" stroke="#99AAD7" stroke-width="0.1645" stroke-linecap="round" stroke-linejoin="round" d="M373.6,85.3
		l47.2-5.4l-1.2-7.7l-55.9,5.9L373.6,85.3z"/>
	<path fill="#99AAD7" stroke="#99AAD7" stroke-width="0.1645" stroke-linecap="round" stroke-linejoin="round" d="M420.8,80l51,37
		l7.7-1.3l-59.8-43.5L420.8,80z"/>
	<path fill="#99AAD7" stroke="#99AAD7" stroke-width="0.1645" stroke-linecap="round" stroke-linejoin="round" d="M471.8,117
		l9.5,46.5l9.9,7.2l-11.7-55L471.8,117z"/>
	<path fill="#A5C2E6" stroke="#A5C2E6" stroke-width="0.1645" stroke-linecap="round" stroke-linejoin="round" d="M118.8,163.5
		l9.5-46.5l-7.7-1.3l-11.7,55L118.8,163.5z"/>
	<path fill="#A5C2E6" stroke="#A5C2E6" stroke-width="0.1645" stroke-linecap="round" stroke-linejoin="round" d="M128.2,117l51-37
		l1.1-7.7l-59.8,43.5L128.2,117z"/>
	<path fill="#A5C2E6" stroke="#A5C2E6" stroke-width="0.1645" stroke-linecap="round" stroke-linejoin="round" d="M179.2,80
		l47.2,5.4l9.9-7.2l-55.9-5.9L179.2,80z"/>
	<path fill="#C5E0ED" stroke="#C5E0ED" stroke-width="0.1645" stroke-linecap="round" stroke-linejoin="round" d="M114.4,430.1
		L73,406.7l-3.6,6.9l48.7,28.1L114.4,430.1z"/>
	<path fill="#C5E0ED" stroke="#C5E0ED" stroke-width="0.1645" stroke-linecap="round" stroke-linejoin="round" d="M73,406.7
		l-19.5-60l-7-3.5l22.8,70.3L73,406.7z"/>
	<path fill="#C5E0ED" stroke="#C5E0ED" stroke-width="0.1645" stroke-linecap="round" stroke-linejoin="round" d="M53.6,346.8
		l19.7-43.2l-3.8-11.7l-22.9,51.4L53.6,346.8z"/>
	<path fill="#6182C1" stroke="#6182C1" stroke-width="0.1645" stroke-linecap="round" stroke-linejoin="round" d="M366.5,516.6
		l-35,32.1l5.5,5.5l41.8-37.6H366.5z"/>
	<path fill="#6182C1" stroke="#6182C1" stroke-width="0.1645" stroke-linecap="round" stroke-linejoin="round" d="M331.5,548.7h-63
		l-5.5,5.6l73.9,0L331.5,548.7z"/>
	<path fill="#6182C1" stroke="#6182C1" stroke-width="0.1645" stroke-linecap="round" stroke-linejoin="round" d="M268.5,548.7
		l-35-32.1l-12.2,0l41.8,37.6L268.5,548.7z"/>
	<path fill="#6B89C5" stroke="#6B89C5" stroke-width="0.1645" stroke-linecap="round" stroke-linejoin="round" d="M526.7,303.6
		l19.7,43.2l7-3.5l-22.9-51.4L526.7,303.6z"/>
	<path fill="#6B89C5" stroke="#6B89C5" stroke-width="0.1645" stroke-linecap="round" stroke-linejoin="round" d="M546.4,346.8
		l-19.5,60l3.6,6.9l22.9-70.3L546.4,346.8z"/>
	<path fill="#6B89C5" stroke="#6B89C5" stroke-width="0.1645" stroke-linecap="round" stroke-linejoin="round" d="M526.9,406.7
		l-41.3,23.4l-3.8,11.7l48.7-28.1L526.9,406.7z"/>
	<path fill="#6D8AC6" stroke="#6D8AC6" stroke-width="0.1645" stroke-linecap="round" stroke-linejoin="round" d="M529.8,214.5
		l-33.6-43.6l-5.1-0.2l41.1,53.6L529.8,214.5z"/>
	<path fill="#C5E0ED" stroke="#C5E0ED" stroke-width="0.1645" stroke-linecap="round" stroke-linejoin="round" d="M362,73.4
		l-51.9-18.5L300,55.6l63.7,22.5L362,73.4z"/>
	<path fill="#C5E0ED" stroke="#C5E0ED" stroke-width="0.1645" stroke-linecap="round" stroke-linejoin="round" d="M289.9,54.9
		l-51.8,18.5l-1.8,4.7L300,55.6L289.9,54.9z"/>
	<path fill="#C5E0ED" stroke="#C5E0ED" stroke-width="0.1645" stroke-linecap="round" stroke-linejoin="round" d="M103.8,170.9
		l-33.6,43.6l-2.5,9.8l41.1-53.6L103.8,170.9z"/>
	<path fill="#C5E0ED" stroke="#C5E0ED" stroke-width="0.1645" stroke-linecap="round" stroke-linejoin="round" d="M64,233.7l1.5,55
		l4,3.1l-1.7-67.5L64,233.7z"/>
	<path fill="#C5E0ED" stroke="#C5E0ED" stroke-width="0.1645" stroke-linecap="round" stroke-linejoin="round" d="M116.8,446.6
		l31.1,45.4l8.6,5.4l-38.3-55.7L116.8,446.6z"/>
	<path fill="#83A3D5" stroke="#83A3D5" stroke-width="0.1645" stroke-linecap="round" stroke-linejoin="round" d="M164.2,503.9
		l52.8,15.6l4.2-2.8l-64.8-19.2L164.2,503.9z"/>
	<path fill="#557BBE" stroke="#557BBE" stroke-width="0.1645" stroke-linecap="round" stroke-linejoin="round" d="M383,519.4
		l52.8-15.5l7.8-6.5l-64.8,19.2L383,519.4z"/>
	<path fill="#557BBE" stroke="#557BBE" stroke-width="0.1645" stroke-linecap="round" stroke-linejoin="round" d="M452.1,492
		l31.1-45.4l-1.4-4.9l-38.3,55.7L452.1,492z"/>
	<path fill="#557BBE" stroke="#557BBE" stroke-width="0.1645" stroke-linecap="round" stroke-linejoin="round" d="M534.5,288.8
		l1.5-55l-3.8-9.4l-1.7,67.5L534.5,288.8z"/>
	<path fill="#8FA3D3" stroke="#8FA3D3" stroke-width="0.1645" stroke-linecap="round" stroke-linejoin="round" d="M490.3,181.8
		l34.5,44.9l7.4-2.4l-41.1-53.6L490.3,181.8z"/>
	<path fill="#8FA3D3" stroke="#8FA3D3" stroke-width="0.1645" stroke-linecap="round" stroke-linejoin="round" d="M524.9,226.8
		l-1.6,56.6l7.2,8.5l1.7-67.5L524.9,226.8z"/>
	<path fill="#6E8BC6" stroke="#6E8BC6" stroke-width="0.1645" stroke-linecap="round" stroke-linejoin="round" d="M471,444.4
		l-32,46.7l4.6,6.3l38.3-55.7L471,444.4z"/>
	<path fill="#6E8BC6" stroke="#6E8BC6" stroke-width="0.1645" stroke-linecap="round" stroke-linejoin="round" d="M439,491.1
		l-54.3,16l-5.9,9.5l64.8-19.2L439,491.1z"/>
	<path fill="#C5E0ED" stroke="#C5E0ED" stroke-width="0.1645" stroke-linecap="round" stroke-linejoin="round" d="M215.4,507.1
		l-54.3-16l-4.6,6.3l64.8,19.2L215.4,507.1z"/>
	<path fill="#C5E0ED" stroke="#C5E0ED" stroke-width="0.1645" stroke-linecap="round" stroke-linejoin="round" d="M161,491.1
		l-32-46.7l-10.8-2.7l38.3,55.7L161,491.1z"/>
	<path fill="#A1BFE4" stroke="#A1BFE4" stroke-width="0.1645" stroke-linecap="round" stroke-linejoin="round" d="M76.7,283.4
		l-1.5-56.6l-7.4-2.4l1.7,67.5L76.7,283.4z"/>
	<path fill="#A1BFE4" stroke="#A1BFE4" stroke-width="0.1645" stroke-linecap="round" stroke-linejoin="round" d="M75.1,226.8
		l34.5-44.9l-0.8-11.1l-41.1,53.6L75.1,226.8z"/>
	<path fill="#C5E0ED" stroke="#C5E0ED" stroke-width="0.1645" stroke-linecap="round" stroke-linejoin="round" d="M246.6,82.3
		l53.4-19v-7.7l-63.7,22.5L246.6,82.3z"/>
	<path fill="#C5E0ED" stroke="#C5E0ED" stroke-width="0.1645" stroke-linecap="round" stroke-linejoin="round" d="M300,63.4l53.4,19
		l10.3-4.2L300,55.6V63.4z"/>
	<path fill="#99AAD7" stroke="#99AAD7" stroke-width="0.1645" stroke-linecap="round" stroke-linejoin="round" d="M377.9,132.7
		l-4.3-47.4l-9.9-7.2l4.4,56.2L377.9,132.7z"/>
	<path fill="#99AAD7" stroke="#99AAD7" stroke-width="0.1645" stroke-linecap="round" stroke-linejoin="round" d="M481.2,163.5
		l-46.4,10.6l1.5,9.8l54.8-13.1L481.2,163.5z"/>
	<path fill="#A5C2E6" stroke="#A5C2E6" stroke-width="0.1645" stroke-linecap="round" stroke-linejoin="round" d="M165.1,174.1
		l-46.4-10.6l-9.9,7.2l54.8,13.1L165.1,174.1z"/>
	<path fill="#A5C2E6" stroke="#A5C2E6" stroke-width="0.1645" stroke-linecap="round" stroke-linejoin="round" d="M226.4,85.3
		l-4.3,47.4l9.8,1.6l4.4-56.2L226.4,85.3z"/>
	<path fill="#C5E0ED" stroke="#C5E0ED" stroke-width="0.1645" stroke-linecap="round" stroke-linejoin="round" d="M138.7,389.2
		l-24.4,40.8l3.8,11.7l29.4-48.1L138.7,389.2z"/>
	<path fill="#C5E0ED" stroke="#C5E0ED" stroke-width="0.1645" stroke-linecap="round" stroke-linejoin="round" d="M73.3,303.6
		l43.7,18.7l4.6-8.8l-52.1-21.6L73.3,303.6z"/>
	<path fill="#6182C1" stroke="#6182C1" stroke-width="0.1645" stroke-linecap="round" stroke-linejoin="round" d="M335.2,480.8
		l31.3,35.8h12.2l-36.6-42.9L335.2,480.8z"/>
	<path fill="#6182C1" stroke="#6182C1" stroke-width="0.1645" stroke-linecap="round" stroke-linejoin="round" d="M233.5,516.6
		l31.3-35.8l-6.9-7.1l-36.6,42.9L233.5,516.6z"/>
	<path fill="#6B89C5" stroke="#6B89C5" stroke-width="0.1645" stroke-linecap="round" stroke-linejoin="round" d="M483,322.3
		l43.7-18.7l3.8-11.7l-52.1,21.6L483,322.3z"/>
	<path fill="#6B89C5" stroke="#6B89C5" stroke-width="0.1645" stroke-linecap="round" stroke-linejoin="round" d="M485.6,430.1
		l-24.4-40.8l-8.9,4.4l29.4,48.1L485.6,430.1z"/>
	<path fill="#8FA3D3" stroke="#8FA3D3" stroke-width="0.1645" stroke-linecap="round" stroke-linejoin="round" d="M444.5,193.5
		l45.8-11.6l0.8-11.1l-54.8,13.1L444.5,193.5z"/>
	<path fill="#8EA1D3" stroke="#8EA1D3" stroke-width="0.1645" stroke-linecap="round" stroke-linejoin="round" d="M523.3,283.4
		l-43.9,17.5l-1,12.6l52.1-21.6L523.3,283.4z"/>
	<path fill="#6E8BC6" stroke="#6E8BC6" stroke-width="0.1645" stroke-linecap="round" stroke-linejoin="round" d="M445.8,404.4
		l25.2,40l10.8-2.7l-29.4-48.1L445.8,404.4z"/>
	<path fill="#6E8BC6" stroke="#6E8BC6" stroke-width="0.1645" stroke-linecap="round" stroke-linejoin="round" d="M384.6,507.1
		l-30.2-36.3l-12.3,3l36.6,42.9L384.6,507.1z"/>
	<path fill="#C5E0ED" stroke="#C5E0ED" stroke-width="0.1645" stroke-linecap="round" stroke-linejoin="round" d="M245.6,470.8
		l-30.2,36.3l5.9,9.5l36.6-42.9L245.6,470.8z"/>
	<path fill="#C5E0ED" stroke="#C5E0ED" stroke-width="0.1645" stroke-linecap="round" stroke-linejoin="round" d="M129,444.4
		l25.2-40l-6.6-10.8l-29.4,48.1L129,444.4z"/>
	<path fill="#A1BFE4" stroke="#A1BFE4" stroke-width="0.1645" stroke-linecap="round" stroke-linejoin="round" d="M120.6,300.9
		l-43.9-17.5l-7.2,8.5l52.1,21.6L120.6,300.9z"/>
	<path fill="#A1BFE4" stroke="#A1BFE4" stroke-width="0.1645" stroke-linecap="round" stroke-linejoin="round" d="M109.7,181.8
		l45.8,11.6l8.2-9.6l-54.8-13.1L109.7,181.8z"/>
	<path fill="#C5E0ED" stroke="#C5E0ED" stroke-width="0.1645" stroke-linecap="round" stroke-linejoin="round" d="M243.5,129.5
		l3.1-47.2l-10.3-4.2l-4.4,56.2L243.5,129.5z"/>
	<path fill="#C5E0ED" stroke="#C5E0ED" stroke-width="0.1645" stroke-linecap="round" stroke-linejoin="round" d="M353.4,82.3
		l3.1,47.2l11.7,4.8l-4.4-56.2L353.4,82.3z"/>
	<path fill="#99AAD7" stroke="#99AAD7" stroke-width="0.1645" stroke-linecap="round" stroke-linejoin="round" d="M434.9,174.1
		l-56.9-41.4l-9.8,1.6l68.2,49.5L434.9,174.1z"/>
	<path fill="#A5C2E6" stroke="#A5C2E6" stroke-width="0.1645" stroke-linecap="round" stroke-linejoin="round" d="M222.1,132.7
		l-56.9,41.4l-1.5,9.8l68.2-49.5L222.1,132.7z"/>
	<path fill="#C5E0ED" stroke="#C5E0ED" stroke-width="0.1645" stroke-linecap="round" stroke-linejoin="round" d="M117,322.3
		l21.7,66.9l8.9,4.4l-26-80.1L117,322.3z"/>
	<path fill="#6182C1" stroke="#6182C1" stroke-width="0.1645" stroke-linecap="round" stroke-linejoin="round" d="M264.8,480.8
		l70.4,0l6.9-7l-84.3,0L264.8,480.8z"/>
	<path fill="#6B89C5" stroke="#6B89C5" stroke-width="0.1645" stroke-linecap="round" stroke-linejoin="round" d="M461.3,389.2
		l21.8-66.9l-4.6-8.8l-26,80.1L461.3,389.2z"/>
	<path fill="#8EA1D3" stroke="#8EA1D3" stroke-width="0.1645" stroke-linecap="round" stroke-linejoin="round" d="M479.5,300.9
		L440.9,254l-9.2,3l46.7,56.5L479.5,300.9z"/>
	<path fill="#8EA1D3" stroke="#8EA1D3" stroke-width="0.1645" stroke-linecap="round" stroke-linejoin="round" d="M440.9,254
		l3.6-60.6l-8.2-9.6l-4.5,73.2L440.9,254z"/>
	<path fill="#6E8BC6" stroke="#6E8BC6" stroke-width="0.1645" stroke-linecap="round" stroke-linejoin="round" d="M354.4,470.8
		l32.7-51.1l-5.7-7.8l-39.3,61.8L354.4,470.8z"/>
	<path fill="#6E8BC6" stroke="#6E8BC6" stroke-width="0.1645" stroke-linecap="round" stroke-linejoin="round" d="M387.1,419.7
		l58.7-15.3l6.6-10.8l-71,18.3L387.1,419.7z"/>
	<path fill="#C5E0ED" stroke="#C5E0ED" stroke-width="0.1645" stroke-linecap="round" stroke-linejoin="round" d="M154.2,404.4
		l58.7,15.3l5.7-7.8l-71-18.3L154.2,404.4z"/>
	<path fill="#C5E0ED" stroke="#C5E0ED" stroke-width="0.1645" stroke-linecap="round" stroke-linejoin="round" d="M212.9,419.7
		l32.7,51.1l12.3,2.9l-39.3-61.8L212.9,419.7z"/>
	<path fill="#A1BFE4" stroke="#A1BFE4" stroke-width="0.1645" stroke-linecap="round" stroke-linejoin="round" d="M155.5,193.5
		l3.6,60.6l9.2,3l-4.5-73.2L155.5,193.5z"/>
	<path fill="#A1BFE4" stroke="#A1BFE4" stroke-width="0.1645" stroke-linecap="round" stroke-linejoin="round" d="M159.1,254
		l-38.5,46.9l1,12.6l46.7-56.5L159.1,254z"/>
	<path fill="#C5E0ED" stroke="#C5E0ED" stroke-width="0.1645" stroke-linecap="round" stroke-linejoin="round" d="M356.5,129.5
		L300,151.6v9.6l68.2-26.9L356.5,129.5z"/>
	<path fill="#C5E0ED" stroke="#C5E0ED" stroke-width="0.1645" stroke-linecap="round" stroke-linejoin="round" d="M300,151.6
		l-56.5-22.1l-11.7,4.8l68.2,26.9V151.6z"/>
	<path fill="#C5E0ED" stroke="#C5E0ED" stroke-width="0.1645" stroke-linecap="round" stroke-linejoin="round" d="M311.6,168.7
		l56-22.3l0.6-12L300,161.2L311.6,168.7z"/>
	<path fill="#C5E0ED" stroke="#C5E0ED" stroke-width="0.1645" stroke-linecap="round" stroke-linejoin="round" d="M367.6,146.3
		l57.5,41.8l11.2-4.2l-68.2-49.5L367.6,146.3z"/>
	<path fill="#C5E0ED" stroke="#C5E0ED" stroke-width="0.1645" stroke-linecap="round" stroke-linejoin="round" d="M425.1,188.1
		l-3.9,60.2l10.6,8.7l4.5-73.2L425.1,188.1z"/>
	<path fill="#FFFFFF" stroke="#FFFFFF" stroke-width="0.1645" stroke-linecap="round" stroke-linejoin="round" d="M178.8,248.3
		l-3.9-60.2l-11.2-4.2l4.5,73.2L178.8,248.3z"/>
	<path fill="#FFFFFF" stroke="#FFFFFF" stroke-width="0.1645" stroke-linecap="round" stroke-linejoin="round" d="M174.9,188.1
		l57.5-41.8l-0.6-12l-68.2,49.5L174.9,188.1z"/>
	<path fill="#FFFFFF" stroke="#FFFFFF" stroke-width="0.1645" stroke-linecap="round" stroke-linejoin="round" d="M232.4,146.3
		l56,22.3l11.6-7.4l-68.2-26.9L232.4,146.3z"/>
	<path fill="#FFFFFF" stroke="#FFFFFF" stroke-width="0.1645" stroke-linecap="round" stroke-linejoin="round" d="M213.6,399.1
		l-58.5-14.9l-7.5,9.4l71,18.3L213.6,399.1z"/>
	<path fill="#FFFFFF" stroke="#FFFFFF" stroke-width="0.1645" stroke-linecap="round" stroke-linejoin="round" d="M155.1,384.3
		l-22-67.6l-11.6-3.2l26,80.1L155.1,384.3z"/>
	<path fill="#FFFFFF" stroke="#FFFFFF" stroke-width="0.1645" stroke-linecap="round" stroke-linejoin="round" d="M133.1,316.7
		l38.6-46.4l-3.5-13.3l-46.7,56.5L133.1,316.7z"/>
	<path fill="#C5E0ED" stroke="#C5E0ED" stroke-width="0.1645" stroke-linecap="round" stroke-linejoin="round" d="M367.7,412.7
		l-32.2,51l6.6,10l39.3-61.8L367.7,412.7z"/>
	<path fill="#C5E0ED" stroke="#C5E0ED" stroke-width="0.1645" stroke-linecap="round" stroke-linejoin="round" d="M335.5,463.7
		h-71.1l-6.6,10l84.3,0L335.5,463.7z"/>
	<path fill="#C5E0ED" stroke="#C5E0ED" stroke-width="0.1645" stroke-linecap="round" stroke-linejoin="round" d="M264.5,463.7
		l-32.2-51l-13.7-0.8l39.3,61.8L264.5,463.7z"/>
	<path fill="#C5E0ED" stroke="#C5E0ED" stroke-width="0.1645" stroke-linecap="round" stroke-linejoin="round" d="M428.3,270.3
		l38.6,46.4l11.6-3.2L431.8,257L428.3,270.3z"/>
	<path fill="#C5E0ED" stroke="#C5E0ED" stroke-width="0.1645" stroke-linecap="round" stroke-linejoin="round" d="M466.9,316.7
		l-22,67.6l7.5,9.4l26-80.1L466.9,316.7z"/>
	<path fill="#C5E0ED" stroke="#C5E0ED" stroke-width="0.1645" stroke-linecap="round" stroke-linejoin="round" d="M444.9,384.3
		l-58.5,14.9l-5,12.8l71-18.3L444.9,384.3z"/>
	<path fill="#C5E0ED" stroke="#C5E0ED" stroke-width="0.1645" stroke-linecap="round" stroke-linejoin="round" d="M311.8,227.2
		l-0.2-58.6l-11.6-7.4v71.1L311.8,227.2z"/>
	<path fill="#C5E0ED" stroke="#C5E0ED" stroke-width="0.1645" stroke-linecap="round" stroke-linejoin="round" d="M421.2,248.3
		l-55.8,17.9l-1.2,12.8l67.6-22L421.2,248.3z"/>
	<path fill="#FFFFFF" stroke="#FFFFFF" stroke-width="0.1645" stroke-linecap="round" stroke-linejoin="round" d="M234.6,266.2
		l-55.8-17.9l-10.6,8.7l67.6,22L234.6,266.2z"/>
	<path fill="#FFFFFF" stroke="#FFFFFF" stroke-width="0.1645" stroke-linecap="round" stroke-linejoin="round" d="M288.4,168.7
		l-0.2,58.6l11.8,5.1v-71.1L288.4,168.7z"/>
	<path fill="#FFFFFF" stroke="#FFFFFF" stroke-width="0.1645" stroke-linecap="round" stroke-linejoin="round" d="M247.8,351.6
		l-34.2,47.5l5,12.8l41.8-57.5L247.8,351.6z"/>
	<path fill="#FFFFFF" stroke="#FFFFFF" stroke-width="0.1645" stroke-linecap="round" stroke-linejoin="round" d="M171.7,270.3
		l55.6,18.3l8.5-9.6l-67.6-22L171.7,270.3z"/>
	<path fill="#C5E0ED" stroke="#C5E0ED" stroke-width="0.1645" stroke-linecap="round" stroke-linejoin="round" d="M333.1,365.5
		l34.6,47.2l13.7-0.8l-41.8-57.5L333.1,365.5z"/>
	<path fill="#C5E0ED" stroke="#C5E0ED" stroke-width="0.1645" stroke-linecap="round" stroke-linejoin="round" d="M232.3,412.7
		l34.6-47.2l-6.5-11.1l-41.8,57.5L232.3,412.7z"/>
	<path fill="#C5E0ED" stroke="#C5E0ED" stroke-width="0.1645" stroke-linecap="round" stroke-linejoin="round" d="M372.7,288.6
		l55.6-18.3l3.5-13.3l-67.6,22L372.7,288.6z"/>
	<path fill="#C5E0ED" stroke="#C5E0ED" stroke-width="0.1645" stroke-linecap="round" stroke-linejoin="round" d="M386.4,399.1
		l-34.2-47.5l-12.6,2.8l41.8,57.5L386.4,399.1z"/>
	<path fill="#C5E0ED" stroke="#C5E0ED" stroke-width="0.1645" stroke-linecap="round" stroke-linejoin="round" d="M365.4,266.2
		l-53.6-38.9l-11.8,5.1l64.1,46.6L365.4,266.2z"/>
	<path fill="#FFFFFF" stroke="#FFFFFF" stroke-width="0.1645" stroke-linecap="round" stroke-linejoin="round" d="M288.2,227.2
		l-53.6,38.9l1.2,12.8l64.2-46.6L288.2,227.2z"/>
	<path fill="#F6F6FB" stroke="#F6F6FB" stroke-width="0.1645" stroke-linecap="round" stroke-linejoin="round" d="M227.3,288.6
		l20.5,63l12.6,2.8L235.9,279L227.3,288.6z"/>
	<path fill="#C5E0ED" stroke="#C5E0ED" stroke-width="0.1645" stroke-linecap="round" stroke-linejoin="round" d="M266.9,365.5h66.2
		l6.5-11.1h-79.3L266.9,365.5z"/>
	<path fill="#C5E0ED" stroke="#C5E0ED" stroke-width="0.1645" stroke-linecap="round" stroke-linejoin="round" d="M352.2,351.6
		l20.5-63l-8.5-9.6l-24.5,75.4L352.2,351.6z"/>
	<path fill="#C5E0ED" stroke="#C5E0ED" stroke-width="0.1645" stroke-linecap="round" stroke-linejoin="round" d="M330.9,342.3
		h-61.7l-8.8,12.1h79.3L330.9,342.3z"/>
	<path fill="#C5E0ED" stroke="#C5E0ED" stroke-width="0.1645" stroke-linecap="round" stroke-linejoin="round" d="M269.1,342.3
		l-19.1-58.7l-14.2-4.6l24.5,75.4L269.1,342.3z"/>
	<path fill="#C5E0ED" stroke="#C5E0ED" stroke-width="0.1645" stroke-linecap="round" stroke-linejoin="round" d="M250.1,283.6
		l50-36.3v-14.9L235.9,279L250.1,283.6z"/>
	<path fill="#C5E0ED" stroke="#C5E0ED" stroke-width="0.1645" stroke-linecap="round" stroke-linejoin="round" d="M300,247.3
		l49.9,36.3l14.2-4.6L300,232.4V247.3z"/>
	<path fill="#C5E0ED" stroke="#C5E0ED" stroke-width="0.1645" stroke-linecap="round" stroke-linejoin="round" d="M349.9,283.6
		l-19.1,58.7l8.8,12.1l24.5-75.4L349.9,283.6z"/>
</g>
<g id="Layer_3">
</g>
</svg>
