<?xml version="1.0" encoding="utf-8"?>
<!-- Generator: Adobe Illustrator 18.0.0, SVG Export Plug-In . SVG Version: 6.00 Build 0)  -->
<!DOCTYPE svg PUBLIC "-//W3C//DTD SVG 1.1//EN" "http://www.w3.org/Graphics/SVG/1.1/DTD/svg11.dtd">
<svg version="1.1" xmlns="http://www.w3.org/2000/svg" xmlns:xlink="http://www.w3.org/1999/xlink" x="0px" y="0px"
	 viewBox="0 0 800 800" enable-background="new 0 0 800 800" xml:space="preserve">
<g>
	<circle fill="#94D1F3" cx="401.3" cy="400.2" r="26.7"/>
	<circle fill="#94D1F3" cx="401.3" cy="290.7" r="26.7"/>
	<circle fill="#94D1F3" cx="496.6" cy="345.1" r="26.7"/>
	<circle fill="#94D1F3" cx="496.6" cy="455.9" r="26.7"/>
	<circle fill="#94D1F3" cx="401.3" cy="509.6" r="26.7"/>
	<circle fill="#94D1F3" cx="305.9" cy="455.9" r="26.7"/>
	<circle fill="#94D1F3" cx="305.9" cy="345.1" r="26.7"/>
	<circle fill="#94D1F3" cx="401.3" cy="180.2" r="26.7"/>
	<circle fill="#94D1F3" cx="510.8" cy="210.4" r="26.7"/>
	<circle fill="#94D1F3" cx="592" cy="290.7" r="26.7"/>
	<circle fill="#94D1F3" cx="621.2" cy="400.2" r="26.7"/>
	<circle fill="#94D1F3" cx="592" cy="510.6" r="26.7"/>
	<circle fill="#94D1F3" cx="510.8" cy="591.5" r="26.7"/>
	<circle fill="#94D1F3" cx="401.3" cy="620" r="26.7"/>
	<circle fill="#94D1F3" cx="290.5" cy="591.5" r="26.7"/>
	<circle fill="#94D1F3" cx="210.6" cy="510.6" r="26.7"/>
	<circle fill="#94D1F3" cx="181.9" cy="400.2" r="26.7"/>
	<circle fill="#94D1F3" cx="210.6" cy="290.7" r="26.7"/>
	<circle fill="#94D1F3" cx="291.5" cy="210.4" r="26.7"/>
	<circle fill="#94D1F3" cx="401.3" cy="69.9" r="26.7"/>
	<circle fill="#94D1F3" cx="513.8" cy="90.2" r="26.7"/>
	<circle fill="#94D1F3" cx="613.7" cy="147.6" r="26.7"/>
	<circle fill="#94D1F3" cx="687.1" cy="235" r="26.7"/>
	<circle fill="#94D1F3" cx="725.8" cy="343.1" r="26.7"/>
	<circle fill="#94D1F3" cx="726.8" cy="457.9" r="26.7"/>
	<circle fill="#94D1F3" cx="687.1" cy="565.8" r="26.7"/>
	<circle fill="#94D1F3" cx="613.7" cy="651.4" r="26.7"/>
	<circle fill="#94D1F3" cx="513.8" cy="710" r="26.7"/>
	<circle fill="#94D1F3" cx="401.3" cy="729.7" r="26.7"/>
	<circle fill="#94D1F3" cx="288.5" cy="711" r="26.7"/>
	<circle fill="#94D1F3" cx="189.3" cy="652.4" r="26.7"/>
	<circle fill="#94D1F3" cx="115.8" cy="565.8" r="26.7"/>
	<circle fill="#94D1F3" cx="76.5" cy="457.9" r="26.7"/>
	<circle fill="#94D1F3" cx="76.5" cy="343.1" r="26.7"/>
	<circle fill="#94D1F3" cx="115.8" cy="235" r="26.7"/>
	<circle fill="#94D1F3" cx="189.3" cy="147.6" r="26.7"/>
	<circle fill="#94D1F3" cx="288.5" cy="90.2" r="26.7"/>
</g>
</svg>
